<svg width="16" height="15" viewBox="0 0 16 15" xmlns="http://www.w3.org/2000/svg"><path d="M11.997 12A4 4 0 0 0 16 8V4c0-2.205-1.794-4-4.003-4H4.003A4 4 0 0 0 0 4v4c0 2.205 1.794 4 4.003 4H5v-1H4v2c0 2.04 1.742 2.672 3.047 1.105l2.055-2.465-.77.36h3.665zm0-2H7.865l-.3.36-2.054 2.465a.989.989 0 0 1-.203.2c.08-.044.23-.065.41 0 .177.064.278.176.312.26C6.014 13.254 6 13.154 6 13v-3H4.003C2.9 10 2 9.1 2 8V4a2 2 0 0 1 2.003-2h7.994C13.1 2 14 2.9 14 4v4a2 2 0 0 1-2.003 2z" fill="#7ED321" fill-rule="evenodd"/></svg>