<svg xmlns="http://www.w3.org/2000/svg" xmlns:xlink="http://www.w3.org/1999/xlink" width="106" height="16" viewBox="0 0 106 16"><symbol id="a"><path d="M14.5 5.856c0-.517-.396-.856-1-.856s-1 .34-1 .856v4.288c0 .517.396.856 1 .856s1-.34 1-.856V5.856zm-11 0c0-.517-.396-.856-1-.856s-1 .34-1 .856v4.288c0 .517.396.856 1 .856s1-.34 1-.856V5.856zM4.5 5v6.42c0 .553.308.916.778.916h.778v2.748c0 .553.308.916.777.916.47 0 .778-.363.778-.916v-2.748h.778v2.748c0 .553.308.916.778.916.47 0 .777-.363.777-.916v-2.748h.778c.47 0 .778-.363.778-.916V5h-7zm5.446-3.799l.546-.877c.077-.08 0-.238-.077-.238-.077-.079-.231 0-.231.08l-.546.877A5.427 5.427 0 0 0 8.007.806c-.623 0-1.092.079-1.631.237L5.823.08C5.746 0 5.669 0 5.592 0c-.077.08-.154.237-.077.317l.546.877C5.123 1.676 4.5 2.474 4.5 4h7c0-1.525-.623-2.324-1.554-2.799zM6.054 3.194c-.231 0-.392-.158-.392-.403 0-.237.154-.403.392-.403.231 0 .392.159.392.403 0 .245-.154.403-.392.403zm3.892 0c-.231 0-.392-.158-.392-.403 0-.237.154-.403.392-.403.238 0 .392.159.392.403-.007.245-.161.403-.392.403z"/></symbol><use xlink:href="#a" fill="#3d3e42"/><use xlink:href="#a" x="18" fill="#fff"/></svg>