<svg width="106" height="16" viewBox="0 0 106 16" xmlns="http://www.w3.org/2000/svg" xmlns:xlink="http://www.w3.org/1999/xlink"><symbol id="a"><path d="M11.086 2.008a3.255 3.255 0 0 0-2.417.829L2.089 8.93A.256.256 0 0 0 2 9.125c0 .073.032.144.09.193a.302.302 0 0 0 .418 0L9.1 3.21a2.6 2.6 0 0 1 1.955-.663c1.223.083 2.28 1.203 2.355 2.336a2.247 2.247 0 0 1-.731 1.825l-6.475 6.011c-1.913 1.784-4.264-.507-2.965-1.634 1.299-1.125.328-.28.52-.458L8.67 6.081c1.168-1.198 2.21-.163 1.07.953l-4.952 4.574a.256.256 0 0 0-.09.194c0 .073.033.144.09.193.115.11.302.11.417 0l4.938-4.574c1.782-1.787-.14-3.447-1.905-1.728l-4.909 4.533c-.21.195 1.01-.929-.562.543-1.57 1.473 1.084 4.843 3.858 2.324l6.474-5.999a2.764 2.764 0 0 0 .895-2.225c-.105-1.423-1.386-2.764-2.907-2.86z"/></symbol><use xlink:href="#a" fill="#3d3e42"/></svg>