<svg width="106" height="16" viewBox="0 0 106 16" xmlns="http://www.w3.org/2000/svg" xmlns:xlink="http://www.w3.org/1999/xlink"><symbol id="a"><path d="M9.392 9.827L3.148 3.584l-2.54 1.04c-.21.116-.422 0-.53-.23-.104-.232-.104-.464 0-.58L2.832.234C2.937.113 3.044 0 3.15 0c.106 0 .212.115.318.232l6.455 8.9a.8.8 0 0 1 0 .695.286.286 0 0 1-.264.173.292.292 0 0 1-.265-.173" transform="matrix(1 0 0 -1 3 13)"/></symbol><use xlink:href="#a" fill="#3d3e42"/><use x="18" xlink:href="#a" fill="#fff"/><use x="36" xlink:href="#a" fill="#0f8fee"/><use x="54" xlink:href="#a" fill="#8cb900"/><use x="72" xlink:href="#a" fill="#ff525e"/></svg>