<svg width="106" height="16" viewBox="0 0 106 16" xmlns="http://www.w3.org/2000/svg"><g fill="none"><path d="M15.465 16V0H.5v16V0h14.965v16h-5.019l-.013-3.203c0-.841-.219-1.457-.658-1.847a8.46 8.46 0 0 0 1.298-.234 5.105 5.105 0 0 0 1.19-.507c.41-.234.752-.523 1.027-.865.274-.343.498-.798.671-1.366.173-.568.26-1.22.26-1.957 0-1.049-.334-1.942-1.001-2.679.312-.789.279-1.673-.101-2.652-.237-.079-.579-.03-1.026.142a6.74 6.74 0 0 0-1.166.573l-.48.312a8.776 8.776 0 0 0-2.433-.338c-.836 0-1.646.112-2.432.338a11.155 11.155 0 0 0-.538-.351c-.224-.139-.576-.306-1.058-.501C3.506.67 3.142.61 2.897.689c-.371.98-.401 1.864-.088 2.653-.668.737-1.001 1.63-1.001 2.68 0 .736.086 1.386.26 1.95.172.563.394 1.018.664 1.365s.61.637 1.02.871c.41.235.806.404 1.19.508.385.104.817.182 1.299.234-.338.312-.545.758-.62 1.34a2.474 2.474 0 0 1-.57.195 3.51 3.51 0 0 1-.723.065c-.278 0-.555-.094-.83-.28-.274-.186-.508-.457-.702-.813a2.078 2.078 0 0 0-.615-.676c-.249-.173-.458-.277-.626-.312L1.3 10.43c-.177 0-.3.02-.367.058-.068.04-.089.09-.063.15a.7.7 0 0 0 .114.182.94.94 0 0 0 .164.156l.089.066c.186.086.37.25.55.494.182.242.315.464.4.663l.126.3c.11.328.296.595.558.799.261.203.544.333.848.39.304.056.598.087.88.09.283.005.518-.01.703-.045l.292-.052c0 .33-.013 2.319-.013 2.319h9.883z" fill="#3D3E42"/><path d="M33.465 16V0H18.5v16V0h14.965v16h-5.019l-.013-3.203c0-.841-.219-1.457-.658-1.847a8.46 8.46 0 0 0 1.298-.234 5.105 5.105 0 0 0 1.19-.507c.41-.234.752-.523 1.027-.865.274-.343.498-.798.671-1.366.173-.568.26-1.22.26-1.957 0-1.049-.334-1.942-1.001-2.679.312-.789.279-1.673-.101-2.652-.237-.079-.579-.03-1.026.142a6.74 6.74 0 0 0-1.166.573l-.48.312a8.776 8.776 0 0 0-2.433-.338c-.836 0-1.646.112-2.432.338a11.155 11.155 0 0 0-.538-.351c-.224-.139-.576-.306-1.058-.501-.48-.195-.844-.254-1.089-.176-.371.98-.401 1.864-.088 2.653-.668.737-1.001 1.63-1.001 2.68 0 .736.086 1.386.26 1.95.172.563.394 1.018.664 1.365s.61.637 1.02.871c.41.235.806.404 1.19.508.385.104.817.182 1.299.234-.338.312-.545.758-.62 1.34a2.474 2.474 0 0 1-.57.195 3.51 3.51 0 0 1-.723.065c-.278 0-.555-.094-.83-.28-.274-.186-.508-.457-.702-.813a2.078 2.078 0 0 0-.615-.676c-.249-.173-.458-.277-.626-.312l-.254-.039c-.177 0-.3.02-.367.058-.068.04-.089.09-.063.15a.7.7 0 0 0 .114.182.94.94 0 0 0 .164.156l.089.066c.186.086.37.25.55.494.182.242.315.464.4.663l.126.3c.11.328.296.595.558.799.261.203.544.333.848.39.304.056.598.087.88.09.283.005.518-.01.703-.045l.292-.052c0 .33-.013 2.319-.013 2.319h9.883z" fill="#FFF"/></g></svg>