<svg width="106" height="16" viewBox="0 0 106 16" xmlns="http://www.w3.org/2000/svg" xmlns:xlink="http://www.w3.org/1999/xlink"><defs><path d="M0 0v11.251h1.956l.003-3.965c-.003-.665.057-1.168.177-1.508.117-.34.303-.594.562-.765.253-.168.544-.254.868-.254.284 0 .519.066.707.2.188.13.32.307.394.532.074.223.11.748.11 1.578v4.182h1.958V6.608c0-.71-.033-1.235-.1-1.57a2.577 2.577 0 0 0-.377-.927c-.183-.277-.455-.506-.819-.684a2.697 2.697 0 0 0-1.218-.27c-.877 0-1.632.397-2.262 1.185V0H0z" id="a"/><path d="M0 0v11.251h1.956V7.286c0-.665.06-1.168.178-1.508.12-.34.306-.594.561-.765.254-.168.545-.254.869-.254.283 0 .52.066.707.2.189.13.319.307.394.532.075.223.111.748.111 1.578v4.182h1.957V6.608c0-.71-.033-1.235-.1-1.57a2.57 2.57 0 0 0-.377-.927c-.183-.277-.455-.506-.817-.684-.364-.18-.77-.27-1.22-.27-.877 0-1.632.397-2.263 1.185V0H0z" id="c"/><path d="M0 0v11.251h1.956l.003-3.965c-.003-.665.057-1.168.177-1.508.117-.34.303-.594.562-.765.253-.168.544-.254.868-.254.284 0 .519.066.707.2.188.13.32.307.394.532.074.223.11.748.11 1.578v4.182h1.958V6.608c0-.71-.033-1.235-.1-1.57a2.577 2.577 0 0 0-.377-.927c-.183-.277-.455-.506-.819-.684a2.697 2.697 0 0 0-1.218-.27c-.877 0-1.632.397-2.262 1.185V0H0z" id="e"/><path d="M0 0v11.251h1.956V7.286c0-.665.06-1.168.178-1.508.12-.34.306-.594.561-.765.254-.168.545-.254.869-.254.283 0 .52.066.707.2.189.13.319.307.394.532.075.223.111.748.111 1.578v4.182h1.957V6.608c0-.71-.033-1.235-.1-1.57a2.57 2.57 0 0 0-.377-.927c-.183-.277-.455-.506-.817-.684-.364-.18-.77-.27-1.22-.27-.877 0-1.632.397-2.263 1.185V0H0z" id="g"/></defs><g fill="none" fill-rule="evenodd"><g transform="translate(.7 2.5)"><mask id="b" fill="#fff"><use xlink:href="#a"/></mask><path fill="#3D3E42" mask="url(#b)" d="M-1.217 12.527h9.17V-1.277h-9.17z"/></g><g transform="translate(8.653 2.5)"><mask id="d" fill="#fff"><use xlink:href="#c"/></mask><path fill="#3D3E42" mask="url(#d)" d="M-1.217 12.527H7.95V-1.277h-9.167z"/></g><g transform="translate(18.7 2.5)"><mask id="f" fill="#fff"><use xlink:href="#e"/></mask><path fill="#FFF" mask="url(#f)" d="M-1.217 12.527h9.17V-1.277h-9.17z"/></g><g transform="translate(26.653 2.5)"><mask id="h" fill="#fff"><use xlink:href="#g"/></mask><path fill="#FFF" mask="url(#h)" d="M-1.217 12.527H7.95V-1.277h-9.167z"/></g></g></svg>