<svg width="106" height="16" viewBox="0 0 106 16" xmlns="http://www.w3.org/2000/svg"><g transform="translate(1 1)" fill="none" fill-rule="evenodd"><circle fill="#333" cx="7" cy="7" r="7"/><path d="M6.148 9.883h1.069V11h-1.07V9.883zM4.993 3.714c.437-.47 1.037-.706 1.8-.706.705 0 1.27.201 1.694.604.424.403.637.918.637 1.544 0 .38-.078.688-.234.924-.156.236-.47.584-.943 1.042-.343.333-.566.615-.668.846-.102.231-.154.572-.154 1.023H6.17c0-.512.061-.925.183-1.238.122-.313.389-.672.8-1.077l.43-.424c.129-.122.233-.249.312-.381.143-.233.214-.475.214-.725 0-.351-.104-.656-.314-.914-.21-.257-.556-.386-1.04-.386-.597 0-1.01.222-1.24.666-.129.247-.202.603-.22 1.069h-.956c0-.774.218-1.396.655-1.867z" fill="#FFF"/></g></svg>