<svg xmlns="http://www.w3.org/2000/svg" xmlns:xlink="http://www.w3.org/1999/xlink" width="106" height="16" viewBox="0 0 106 16"><symbol id="a"><path d="M12.897 7.71a5.17 5.17 0 0 0-.917 1.458 1.06 1.06 0 0 0-.2-.728 1.104 1.104 0 0 0-1.526-.246 1.067 1.067 0 0 0-.25 1.504 1.104 1.104 0 0 0 1.797-.032 5.12 5.12 0 0 0-.2 1.954l.169 1.809-1.693-.722a5.308 5.308 0 0 0-2.094-.428c-.72 0-1.42.142-2.08.422l-1.695.717.174-1.81a5.113 5.113 0 0 0-.149-1.799c.373.351.958.403 1.392.095.49-.347.602-1.02.25-1.503a1.104 1.104 0 0 0-1.527-.246 1.07 1.07 0 0 0-.447.754A5.167 5.167 0 0 0 3.1 7.695L1.883 6.33l1.8-.396A5.299 5.299 0 0 0 5.06 5.42a1.06 1.06 0 0 0 .183.842 1.104 1.104 0 0 0 1.526.245c.49-.347.602-1.02.25-1.504a1.094 1.094 0 0 0-.783-.442 5.18 5.18 0 0 0 .828-1.04l.943-1.56.938 1.563c.233.388.515.741.837 1.053a1.099 1.099 0 0 0-.647.202 1.067 1.067 0 0 0-.25 1.504 1.104 1.104 0 0 0 1.527.245c.382-.27.533-.74.414-1.162.462.265.965.463 1.493.581l1.798.402-1.22 1.362zM16 5.739l-2.352-.525a6.915 6.915 0 0 1-4.412-3.169L8.009 0 6.775 2.042a6.916 6.916 0 0 1-4.421 3.155L0 5.714l1.59 1.787a6.754 6.754 0 0 1 1.679 5.119l-.228 2.365 2.216-.937a6.942 6.942 0 0 1 2.72-.551c.948 0 1.87.188 2.74.559L12.93 15l-.22-2.366a6.755 6.755 0 0 1 1.695-5.113L16 5.739zm-8.707 4.553a1.067 1.067 0 0 0-.25 1.504 1.104 1.104 0 0 0 1.527.246c.49-.348.602-1.021.25-1.504a1.104 1.104 0 0 0-1.527-.246z"/></symbol><use xlink:href="#a" fill="#3D3E42"/><use xlink:href="#a" x="90" fill="#FFB700"/></svg>