<svg width="106" height="16" viewBox="0 0 106 16" xmlns="http://www.w3.org/2000/svg" xmlns:xlink="http://www.w3.org/1999/xlink"><symbol id="a"><path d="M7.997.005c-2.172 0-2.444.01-3.297.048-.85.039-1.432.174-1.94.372a3.92 3.92 0 0 0-1.417.922A3.92 3.92 0 0 0 .42 2.764c-.198.509-.333 1.09-.372 1.941C.01 5.558 0 5.831 0 8.003s.01 2.444.048 3.297c.039.851.174 1.432.372 1.941.204.526.478.972.922 1.417.445.444.89.718 1.417.922.509.198 1.09.333 1.941.372.853.039 1.125.048 3.297.048s2.445-.01 3.298-.048c.851-.039 1.432-.174 1.941-.372a3.92 3.92 0 0 0 1.417-.922 3.92 3.92 0 0 0 .922-1.417c.198-.509.333-1.09.372-1.941.039-.853.048-1.125.048-3.297s-.01-2.445-.048-3.298c-.039-.851-.174-1.432-.372-1.941a3.92 3.92 0 0 0-.922-1.417 3.92 3.92 0 0 0-1.417-.922c-.509-.198-1.09-.333-1.941-.372-.853-.039-1.126-.048-3.298-.048m0 1.441c2.136 0 2.389.008 3.232.047.78.035 1.203.166 1.485.275.373.145.64.318.92.598.28.28.453.547.598.92.11.282.24.705.275 1.485.039.843.047 1.096.047 3.232 0 2.135-.008 2.388-.047 3.231-.035.78-.166 1.203-.275 1.485-.145.374-.318.64-.598.92a2.48 2.48 0 0 1-.92.598c-.282.11-.705.24-1.485.275-.843.039-1.096.047-3.232.047-2.135 0-2.388-.008-3.231-.047-.78-.035-1.203-.165-1.485-.275a2.478 2.478 0 0 1-.92-.598 2.478 2.478 0 0 1-.598-.92c-.11-.282-.24-.705-.275-1.485-.039-.843-.047-1.096-.047-3.231 0-2.136.008-2.389.047-3.232.035-.78.165-1.203.275-1.485a2.48 2.48 0 0 1 .598-.92c.28-.28.547-.453.92-.598.282-.11.705-.24 1.485-.275.843-.039 1.096-.047 3.231-.047"/><path d="M8 10.885a2.885 2.885 0 1 1 0-5.77 2.885 2.885 0 0 1 0 5.77zm0-7.33a4.444 4.444 0 1 0 0 8.89 4.444 4.444 0 0 0 0-8.89zm5.333 0a.889.889 0 1 1-1.777 0 .889.889 0 0 1 1.777 0z"/></symbol><use xlink:href="#a" fill="#3d3e42"/><use x="18" xlink:href="#a" fill="#fff"/></svg>