<svg width="106" height="16" viewBox="0 0 106 16" xmlns="http://www.w3.org/2000/svg" xmlns:xlink="http://www.w3.org/1999/xlink"><symbol id="a"><path d="M14.5 11.72c-.56 1.49-1.948 4.186-3.528 4.278-1.112 0-1.396-.653-2.6-.653-1.204 0-1.58.653-2.6.653-1.764.093-4.272-3.91-4.272-7.35 0-3.164 2.04-4.747 3.996-4.747 1.02 0 2.04.653 2.6.653.652 0 1.856-.837 3.068-.745.56 0 1.948.184 2.876 1.582-2.424 1.675-2.232 5.124.46 6.33zM11.156 0C9.3.092 7.72 2.043 7.996 3.717c1.672.1 3.344-1.858 3.16-3.717z"/></symbol><use xlink:href="#a" fill="#3d3e42"/><use x="18" xlink:href="#a" fill="#fff"/></svg>