<svg width="106" height="16" viewBox="0 0 106 16" xmlns="http://www.w3.org/2000/svg"><g fill="none"><path d="M5.606 2.022a6.885 6.885 0 0 1 2.746-.569c3.82 0 6.917 3.108 6.917 6.94 0 3.834-3.097 6.942-6.917 6.942s-6.917-3.107-6.917-6.941c0-.983.218-1.904.587-2.752L.5 4.116A6.947 6.947 0 0 1 4.087.5l1.52 1.522zm2.04 9.263a6.96 6.96 0 0 1 3.584-3.62l-5.623-5.64-.003-.001a6.952 6.952 0 0 0-3.583 3.62l5.626 5.64zm3.987-1.693a4.046 4.046 0 0 0-2.082 2.102l2.627.546-.545-2.648z" fill="#3D3E42"/><path d="M23.606 2.022a6.885 6.885 0 0 1 2.746-.569c3.82 0 6.917 3.108 6.917 6.94 0 3.834-3.097 6.942-6.917 6.942s-6.917-3.107-6.917-6.941c0-.983.218-1.904.587-2.752L18.5 4.116A6.947 6.947 0 0 1 22.087.5l1.52 1.522zm2.04 9.263a6.96 6.96 0 0 1 3.584-3.62l-5.623-5.64-.003-.001a6.952 6.952 0 0 0-3.583 3.62l5.626 5.64zm3.987-1.693a4.046 4.046 0 0 0-2.082 2.102l2.627.546-.545-2.648z" fill="#FFF"/></g></svg>