<svg width="106" height="16" viewBox="0 0 106 16" xmlns:xlink="http://www.w3.org/1999/xlink" xmlns="http://www.w3.org/2000/svg"><symbol id="a"><path d="M11 11v4h-1l-4-4H2a2 2 0 0 1-2-2V2a2 2 0 0 1 2-2h12a2 2 0 0 1 2 2v7a2 2 0 0 1-2 2h-3zM4 3v1h8V3H4zm0 2v1h8V5H4zm0 2v1h5V7H4z"/></symbol><use xlink:href="#a" fill="#3d3e42"/><use x="18" xlink:href="#a" fill="#fff"/><use x="36" xlink:href="#a" fill="#0f8fee"/><use x="54" xlink:href="#a" fill="#8cb900"/><use x="72" xlink:href="#a" fill="#ff525e"/></svg>