<svg width="106" height="16" viewBox="0 0 106 16" xmlns:xlink="http://www.w3.org/1999/xlink" xmlns="http://www.w3.org/2000/svg"><symbol id="a"><path d="M12.5 12c1-1.1 1.5-2.5 1.5-4 0-3-2.2-5.4-5-5.9v1.5c2 .5 3.5 2.2 3.5 4.4 0 1.3-.6 2.5-1.5 3.3V8H9v6h6v-2h-2.5zM1 4h2.5C2.6 5.1 2 6.5 2 8c0 3 2.2 5.4 5 5.9v-1.5c-2-.5-3.5-2.3-3.5-4.4 0-1.3.6-2.5 1.5-3.3V8h2V2H1v2z"/></symbol><use xlink:href="#a" fill="#3d3e42"/><use xlink:href="#a" x="18" fill="#fff"/><use xlink:href="#a" x="36" fill="#0f8fee"/></svg>