<svg width="106" height="16" viewBox="0 0 106 16" xmlns:xlink="http://www.w3.org/1999/xlink" xmlns="http://www.w3.org/2000/svg"><symbol id="a"><path d="M7.905 10.678A2.667 2.667 0 0 1 5.227 8a2.667 2.667 0 0 1 2.678-2.678A2.667 2.667 0 0 1 10.583 8a2.667 2.667 0 0 1-2.678 2.678m5.852-3.967l-1.19-.1c-.1-.395-.298-.693-.397-1.09l.793-.892c.198-.198.198-.595 0-.893l-.893-.892c-.198-.2-.595-.2-.892 0l-.893.793c-.297-.198-.694-.297-1.09-.397l-.1-1.19c0-.298-.297-.596-.595-.596H7.21c-.297 0-.594.298-.594.595l-.1 1.19c-.396.1-.694.297-1.09.396l-.893-.793c-.198-.2-.595-.2-.893 0l-.892.892c-.2.2-.2.595 0 .893l.793.893c-.197.298-.296.695-.396 1.09l-1.19.1c-.297 0-.496.298-.496.695v1.29c0 .297.298.594.595.594l1.19.1c.1.395.298.693.397 1.09l-.793.892c-.2.198-.2.595 0 .893l.892.892c.198.2.595.2.892 0l.893-.793c.297.198.694.297 1.09.397l.1 1.19c0 .298.297.596.595.596H8.6c.297 0 .594-.298.594-.595l.1-1.19c.396-.1.694-.297 1.09-.396l.893.793c.198.2.595.2.893 0l.892-.892c.2-.2.2-.595 0-.893l-.793-.893c.197-.298.296-.695.396-1.09l1.19-.1c.297 0 .595-.298.595-.596v-1.29c-.098-.396-.396-.693-.693-.693"/></symbol><use xlink:href="#a" fill="#3d3e42"/><use xlink:href="#a" x="18" fill="#fff"/><use xlink:href="#a" x="36" fill="#0f8fee"/><use xlink:href="#a" x="54" fill="#8cb900"/><use xlink:href="#a" x="72" fill="#ff525e"/></svg>