<svg width="106" height="16" viewBox="0 0 106 16" xmlns:xlink="http://www.w3.org/1999/xlink" xmlns="http://www.w3.org/2000/svg"><symbol id="a"><path d="M15.32 9.813a.529.529 0 0 1-.044-.332c.18-.889.186-1.78.039-2.676-.65-3.948-4.37-6.716-8.323-6.182A.98.98 0 0 1 6.36.507a4.32 4.32 0 0 0-5.073.749 4.323 4.323 0 0 0-.817 5.04.75.75 0 0 1 .078.53c-.083.4-.09.812-.11 1.24.015.238.02.496.046.752.447 4.28 4.367 7.28 8.635 6.613.13-.02.24.002.356.06.806.407 1.672.506 2.545.367 2.854-.455 4.443-3.388 3.299-6.045z"/><path d="M11.6 11.808c-.48.545-1.083.895-1.768 1.092-1.285.37-2.584.382-3.864-.003-1.165-.35-2.024-1.072-2.366-2.282-.242-.858.311-1.499 1.166-1.398.37.043.612.266.785.574.109.193.2.397.296.596.318.65.829 1.019 1.555 1.099.595.065 1.17.023 1.72-.227.213-.096.401-.229.555-.406a1.02 1.02 0 0 0-.168-1.522c-.488-.362-1.073-.458-1.643-.585-.815-.182-1.634-.354-2.4-.696-.793-.353-1.436-.866-1.644-1.763-.241-1.04.048-1.92.88-2.594.735-.595 1.618-.787 2.533-.866.212-.019.426-.003.64-.003.844-.023 1.666.089 2.429.478.584.298 1.067.704 1.348 1.313.138.299.203.617.115.935-.108.386-.37.655-.77.736-.414.084-.8.018-1.062-.368-.125-.183-.244-.37-.357-.561-.356-.608-.865-.946-1.587-.944-.33.002-.658-.01-.98.069-.29.07-.556.19-.776.395-.392.364-.377.864.041 1.197.276.22.602.342.94.428.79.201 1.585.389 2.375.595.43.113.841.282 1.24.481 1.851.929 1.72 3.146.767 4.23z" fill="#FFF"/></symbol><use xlink:href="#a" x="90" fill="#00A9F0"/></svg>