<svg width="106" height="16" viewBox="0 0 106 16" xmlns="http://www.w3.org/2000/svg"><path d="M12.048 14.144v-3.068L14 11v5H1v-5h1.996v3.068z"/><path d="M4.153 9.782l7.206 1.444.305-1.39-7.206-1.444-.305 1.39zm.953-3.291l6.672 2.98.61-1.28-6.672-2.998-.61 1.298zm1.849-3.145l5.662 4.516.934-1.079L7.89 2.267l-.934 1.079zM10.615 0L9.433.841l4.385 5.668L15 5.67 10.615 0zM4 13h7v-1.408H4V13z"/><g fill="#FFF"><path d="M30.048 14.144v-3.068L32 11v5H19v-5h1.996v3.068z"/><path d="M22.153 9.782l7.206 1.444.305-1.39-7.206-1.444-.305 1.39zm.953-3.291l6.672 2.98.61-1.28-6.672-2.998-.61 1.298zm1.849-3.145l5.662 4.516.934-1.079-5.662-4.516-.934 1.079zM28.615 0l-1.182.841 4.385 5.668L33 5.67 28.615 0zM22 13h7v-1.408h-7V13z"/></g></svg>