<svg xmlns="http://www.w3.org/2000/svg" xmlns:xlink="http://www.w3.org/1999/xlink" width="106" height="16" viewBox="0 0 106 16"><symbol id="a"><path d="M8.267 6.417c-1.178 0-2.134.97-2.134 2.166 0 1.197.956 2.167 2.134 2.167S10.4 9.78 10.4 8.583c0-1.196-.955-2.166-2.133-2.166m0 5.958c-2.062 0-3.734-1.698-3.734-3.792s1.672-3.791 3.734-3.791C10.329 4.792 12 6.489 12 8.583s-1.671 3.792-3.733 3.792M15.2 3.167h-3.093L10.4 1H6.133L4.427 3.167H1.333C.744 3.167 0 3.652 0 4.25v8.667C0 13.515.744 14 1.333 14H15.2c.59 0 .8-.485.8-1.083V4.25c0-.598-.21-1.083-.8-1.083"/></symbol><use xlink:href="#a" fill="#3d3e42"/><use xlink:href="#a" x="18" fill="#fff"/><use xlink:href="#a" x="36" fill="#0f8fee"/><use xlink:href="#a" x="54" fill="#8cb900"/><use xlink:href="#a" x="72" fill="#ff525e"/></svg>