<svg width="116" height="35" viewBox="0 0 116 35" xmlns="http://www.w3.org/2000/svg"><g fill="none"><path d="M98.681 34.596c-9.5 0-17.277-7.688-17.277-17.298C81.404 7.79 89.082 0 98.68 0c9.596 0 17.275 7.79 17.275 17.298 0 9.51-7.779 17.298-17.276 17.298h.001z" fill="#D6001C"/><path d="M91.481 23.834h-3.323V11.13h3.122v1.815c.503-.807 1.007-1.411 1.41-1.713.406-.304.915-.404 1.413-.404.713 0 1.517.203 2.219.61l-1.008 2.929c-.6-.403-1.109-.504-1.607-.504-.499 0-.804.102-1.207.403-.302.302-.605.706-.806 1.411-.2.707-.301 2.117-.301 4.236v3.928h.101l-.013-.007zm14.5 0v-1.916c-.502.706-1.107 1.21-1.811 1.614-.706.403-1.511.604-2.418.604-.806 0-1.61-.201-2.316-.604-.705-.403-1.208-.908-1.51-1.613-.302-.702-.403-1.608-.403-2.819v-7.967h3.323v5.75c0 1.817.101 2.826.201 3.225.102.407.302.71.705.911.303.202.706.303 1.21.303.603 0 1.106-.204 1.51-.504.503-.3.805-.702.905-1.206.203-.507.203-1.616.203-3.429v-5.342h3.322v12.597h-2.92v.401-.005zM8.344 14.086v-.407c0-2.442-.61-3.358-2.239-3.358-1.628 0-2.238.916-2.238 3.358v7.835c0 2.544.61 3.46 2.238 3.46 1.527 0 2.239-.916 2.239-3.46v-1.018h3.765v.814c0 3.562-1.323 6.614-6.004 6.614C1.221 27.924 0 24.872 0 21.31v-7.224c0-4.58 2.035-6.818 6.105-6.818 3.867 0 5.902 2.137 5.902 5.8v1.018H8.344zm9.361-6.41h4.986l4.376 19.74h-4.07l-.916-5.088h-4.274l-1.221 5.088h-3.968l5.087-19.74zm3.969 11.701l-1.527-9.158-1.831 9.158h3.358zm10.073 8.039h-3.765V7.676h7.836c3.052 0 4.986 2.238 4.986 5.087 0 2.95-1.222 4.375-2.951 4.68 2.136.408 2.747 2.138 2.747 3.562v2.544c0 1.832 0 3.256.916 3.256v.61h-3.867c-.712-.61-.916-1.933-.916-3.255v-2.24c0-1.525-.508-2.848-2.238-2.848h-2.748v8.344zm0-11.193h2.544c1.323 0 2.646-.61 2.646-2.85 0-2.136-1.018-2.747-2.748-2.747h-2.442v5.597zm21.47-8.548v3.053H46.4v4.579h6.207v3.053H46.4v6.105h6.818v3.052H42.635V7.675h10.583zm12.211 0v3.053h-6.817v4.579h6.207v3.053H58.61v6.105h6.817v3.052H54.846V7.675h10.582zm5.393 19.74h-3.765V7.676h7.835c3.053 0 4.986 2.239 4.986 5.088 0 2.95-1.22 4.375-2.95 4.68 2.136.408 2.747 2.138 2.747 3.562v2.544c0 1.832 0 3.256.915 3.256v.61h-3.764c-.713-.61-.916-1.933-.916-3.255v-2.24c0-1.525-.509-2.848-2.239-2.848h-2.747v8.344h-.102zm0-11.192h2.544c1.323 0 2.646-.61 2.646-2.85 0-2.136-1.018-2.747-2.748-2.747h-2.442v5.597z" fill="#FFF"/></g></svg>