<svg width="28" height="28" viewBox="0 0 28 28" xmlns="http://www.w3.org/2000/svg"><g fill="none"><circle fill="#3A7ED5" cx="14" cy="14" r="14"/><path d="M21.14 8l-6.298.022-2.04 11.172 6.727-.007c1.467 0 2.62-.64 3.278-1.406.676-.782 1.165-2.077 1.528-4.25.323-1.934.144-3.26-.446-4.17C23.3 8.447 22.323 8 21.142 8zm-.317 5.497c-.264 1.582-.667 2.094-.848 2.27-.515.543-1.32.64-2.09.64h-.47c-.045 0-.38 0-.528-.193-.137-.175-.08-.432-.042-.655l.69-4.124c.026-.16.09-.464.315-.624.17-.11.37-.128.552-.128h.257c.817 0 1.445.048 1.842.48.345.384.528 1.103.322 2.333zM10.05 8l-1.554 8.24c-.044.19-.09.348-.14.475a.73.73 0 0 1-.223.31.887.887 0 0 1-.387.167c-.16.03-.365.048-.618.048-.22 0-.393-.024-.52-.072a.421.421 0 0 1-.255-.23.861.861 0 0 1-.04-.413c.016-.17.052-.376.106-.62l.213-.983h-3.13l-.215.984c-.187.826-.283 1.505-.288 2.04-.005.534.11.952.346 1.253.236.3.61.51 1.12.627.51.116 1.195.173 2.052.173.868 0 1.596-.046 2.184-.142.587-.095 1.082-.278 1.482-.548.4-.27.725-.65.973-1.143.247-.492.46-1.135.634-1.93L13.347 8H10.05z" fill="#fff"/></g></svg>