<svg width="116" height="50" viewBox="0 0 116 50" xmlns="http://www.w3.org/2000/svg"><g fill="none"><path d="M112.77 27.862c-.64-.766-1.668-1.189-2.896-1.189H97.81c-.593 0-1.1.428-1.203 1.015l-.69 3.942c-.062.357.036.724.267 1.002.232.278.574.438.936.438h3.99l-4.774 3.234c-1.421.974-2.154 2.106-2.45 3.787-.232 1.33.01 2.508.682 3.315.419.494 1.189 1.084 2.51 1.084h12.675c.6 0 1.103-.428 1.208-1.008l.722-4.117a1.194 1.194 0 0 0-.266-.998 1.211 1.211 0 0 0-.932-.438h-4.088l4.583-3.109c1.33-.884 2.148-2.187 2.443-3.88.228-1.254.01-2.29-.637-3.061l-.018-.017zm-23.09-2.948c-.834-3.398-3.778-3.398-5.361-3.398-3.55 0-4.96 1.17-6.088 3.062L67.61 42.634a1.22 1.22 0 1 0 1.05 1.845h6.855a1.21 1.21 0 0 0 1.065-.638l1.968-3.546h5.543l.657 3.195c.123.57.618.979 1.198.979H92.8c.38 0 .732-.171.96-.466.228-.295.314-.685.228-1.046l-4.297-18.065-.013.022zm-6.799 8.31h-.654l.49-.928.165.928h-.001zm-18.707-5.916a1.22 1.22 0 0 0-1.069-.635h-5.648c-.428 0-.818.222-1.046.585l-4.402 7.205-1.617-6.845a1.228 1.228 0 0 0-1.188-.945h-5.752c-.387 0-.75.184-.979.495-.232.31-.302.713-.19 1.084l4.402 14.81-2.945 4.47a1.228 1.228 0 1 0 1.017 1.901H50.4a1.2 1.2 0 0 0 1.027-.58l12.703-20.3a1.23 1.23 0 0 0 .033-1.245h.01zm-26.807-.635H27.26c-.592 0-1.1.428-1.202 1.015l-.67 3.826c-.057.357.038.724.266 1.002.171.2.39.338.637.4a4.906 4.906 0 0 0-2.082 2.02c.123-.542.238-1.112.342-1.721.656-3.708.314-6.48-1.036-8.468-1.312-1.934-3.518-2.999-6.238-2.999l-11.97.04a1.231 1.231 0 0 0-1.199.996L.21 43.04a1.21 1.21 0 0 0 .257 1.015c.228.283.574.447.941.447l12.79-.014c2.851 0 5.453-1.077 7.138-2.951.695-.774 1.284-1.752 1.788-2.99-.2 1.344-.352 3.4.875 4.723 1.084 1.217 2.69 1.217 3.556 1.217h8.985c.732 0 2.273 0 3.537-1.122 1.208-1.074 1.455-2.491 1.578-3.176l1.133-6.426c.412-2.332.099-4.075-.941-5.315-.546-.666-1.852-1.779-4.48-1.779l.001.003zm-25.753 2.745c.032-.183.067-.275.09-.318a1.57 1.57 0 0 1 .358-.029h.489c1.361 0 2.229.082 2.618.485.216.231.677.999.295 3.174-.441 2.52-1.06 3.26-1.274 3.46-.704.712-2.033.798-3.112.798h-.79l1.332-7.569h-.006zm51.573 6.599c-2.32 0-4.208 1.898-4.208 4.233 0 2.337 1.89 4.238 4.21 4.238 2.32 0 4.21-1.902 4.21-4.24 0-2.34-1.89-4.241-4.21-4.241l-.002.01z" fill-opacity=".18" fill="#000"/><path d="M112.77 26.693c-.64-.767-1.668-1.188-2.896-1.188H97.81c-.593 0-1.1.428-1.203 1.013l-.69 3.942a1.225 1.225 0 0 0 1.202 1.44l3.99-.001-4.767 3.223c-1.426.98-2.159 2.111-2.455 3.785-.233 1.33.01 2.51.681 3.308.419.495 1.189 1.084 2.51 1.084h12.675c.6 0 1.103-.427 1.208-1.017l.722-4.117a1.214 1.214 0 0 0-.266-1.008 1.181 1.181 0 0 0-.932-.437h-4.088l4.592-3.119c1.322-.884 2.149-2.187 2.444-3.88.218-1.264.01-2.29-.637-3.061l-.028.033zm-23.09-2.942c-.835-3.403-3.78-3.403-5.362-3.403-3.55 0-4.96 1.169-6.086 3.058L67.61 41.466a1.23 1.23 0 0 0 1.05 1.852h6.855a1.21 1.21 0 0 0 1.065-.637l1.968-3.546h5.543l.657 3.185c.123.57.618.98 1.198.98H92.8c.38 0 .732-.172.96-.467.228-.294.324-.684.228-1.045L89.682 23.75zm-6.798 8.303h-.656l.49-.927.165.927h.001zm-18.557-5.323c0-.678-.545-1.226-1.217-1.226h-5.646c-.425 0-.818.22-1.04.584l-4.393 7.205-1.617-6.846a1.21 1.21 0 0 0-1.179-.944h-5.762c-.38 0-.75.182-.979.494a1.26 1.26 0 0 0-.19 1.086l4.402 14.808-2.938 4.469a1.226 1.226 0 1 0 1.017 1.902h5.648a1.23 1.23 0 0 0 1.037-.58L64.134 27.41c.133-.2.218-.437.218-.694l-.026.014zm-26.96-1.226H27.257c-.591 0-1.098.428-1.2 1.013l-.67 3.826c-.057.358.038.725.266 1.004.171.19.39.332.637.399-.171.085-.352.19-.523.304a4.992 4.992 0 0 0-1.56 1.702c.124-.542.239-1.112.343-1.72.656-3.719.314-6.485-1.036-8.473-1.312-1.93-3.528-2.995-6.228-2.995l-11.971.038c-.58 0-1.084.419-1.188.999L.2 41.874c-.067.36.028.732.256 1.015.234.282.58.447.942.447H1.4l12.794-.016c2.843 0 5.448-1.074 7.13-2.947.695-.77 1.285-1.75 1.788-2.986-.209 1.35-.342 3.404.894 4.735 1.075 1.208 2.682 1.208 3.537 1.208h8.986c.798 0 2.282 0 3.546-1.113 1.208-1.074 1.455-2.49 1.578-3.175l1.133-6.429c.409-2.33.099-4.079-.95-5.324-.538-.657-1.846-1.769-4.47-1.769l-.002-.015zm-21.902 6.057c-.453 2.59-1.109 3.305-1.236 3.422a.432.432 0 0 0-.038.037c-.704.709-2.033.798-3.112.798h-.79l.02-.09 1.312-7.478c.038-.184.076-.278.095-.32a1.64 1.64 0 0 1 .361-.028h.495c1.36 0 2.225.08 2.634.497.209.21.665.98.285 3.157l-.026.005zm47.724 3.285c-2.32 0-4.209 1.892-4.209 4.23 0 2.33 1.889 4.232 4.209 4.232 2.32 0 4.21-1.902 4.21-4.24 0-2.34-1.89-4.241-4.21-4.241v.019z" fill="#FFF"/><path d="M17.262 21.807l-11.976.04-3.89 20.257 12.79-.014c2.785 0 4.982-1.158 6.227-2.548 1.284-1.42 2.216-3.768 2.9-7.71.609-3.508.276-5.914-.856-7.568-1.122-1.654-2.985-2.463-5.23-2.463l.035.006zm-.596 9.967c-.502 2.87-1.27 3.798-1.613 4.115-.979.986-2.506 1.16-3.974 1.16h-.894c-.085 0-.719 0-1.004-.348-.261-.324-.152-.79-.079-1.189l1.31-7.483c.057-.295.181-.846.609-1.131.323-.21.704-.238 1.055-.238h.495c1.56 0 2.748.086 3.508.865.656.694 1.008 1.997.609 4.231l-.022.018zm93.209-5.042H97.81l-.69 3.94h7.399c.23 0 .27.086.261.143-.01.086-.142.171-.266.257l-7.483 5.068c-1.008.694-1.664 1.473-1.93 2.985-.276 1.56.266 2.948 1.987 2.948h12.675l.722-4.117h-7.578c-.076 0-.161-.02-.142-.124.019-.085.161-.228.285-.323l7.255-4.925c.789-.523 1.635-1.389 1.92-3.072.485-2.728-1.806-2.814-2.33-2.814l-.021.034zm-25.556-5.158c-3.11 0-4.141.957-5.04 2.463L68.66 42.09h6.855l2.313-4.171h7.255l.854 4.174h6.855l-4.297-18.056c-.552-2.254-2.244-2.463-4.174-2.463h-.001zm-4.124 11.708l2.713-5.13c.082-.151.247-.437.335-.437.086 0 .143.286.181.428l.913 5.135H80.19l.004.004zm-17.091-6.55h-5.641l-5.94 9.736-2.297-9.737h-5.758l4.564 15.359-3.257 4.956h5.648l12.684-20.32-.003.005zM24.911 41.278c.676.755 1.7.812 2.65.812h8.984c.863 0 1.882-.057 2.733-.811.818-.725 1.04-1.65 1.18-2.463l1.127-6.432c.219-1.248.366-3.073-.683-4.319-.544-.665-1.666-1.334-3.537-1.334H27.258l-.67 3.825h7.66c.57 0 1.283.029 1.616.609.2.348.152.754.105 1.014l-.048.232h-6.675c-.894 0-1.882.03-2.824.667-1.378.927-1.778 2.551-2.006 3.882-.21 1.217-.513 3.247.485 4.317h.01zm5.147-4.231c.046-.259.121-.52.358-.723.295-.232.703-.26.875-.26h4.002l-.17.954c-.048.262-.124.552-.419.754-.2.146-.59.203-.875.203h-2.927c-.257 0-.561-.086-.73-.262-.166-.202-.156-.433-.115-.665l.001-.001zm33.13-.973c-1.651 0-2.988 1.35-2.988 3.014a2.993 2.993 0 0 0 2.988 3.005 3 3 0 0 0 2.989-3.005 3 3 0 0 0-2.99-3.004v-.01zM4.754 0H116l-2.852 17.115H1.902L4.754 0z" fill="#3A7ED5"/><path d="M48.102 1.902h-3.356L42.9 10.388c-.046.196-.093.36-.143.49a.774.774 0 0 1-.228.324.806.806 0 0 1-.393.17 2.83 2.83 0 0 1-.63.058c-.223 0-.4-.02-.529-.076a.423.423 0 0 1-.26-.228.868.868 0 0 1-.041-.419c.019-.171.057-.38.114-.637l.219-1.008h-3.185l-.22 1.018c-.19.855-.284 1.55-.284 2.101 0 .551.114.98.351 1.293.238.314.618.533 1.141.647.523.123 1.217.18 2.092.18.884 0 1.626-.047 2.225-.142.6-.097 1.103-.286 1.512-.564.409-.276.742-.67.989-1.18.257-.506.466-1.169.646-1.986l1.825-8.527zm9.076 5.764c.01-.573-.109-1.02-.36-1.341l-.031-.038c-.253-.302-.645-.51-1.177-.625-.554-.12-1.29-.179-2.206-.179-.338 0-.653.01-.948.025a8.83 8.83 0 0 0-1.34.171c-.61.13-1.104.36-1.494.687-.39.327-.703.774-.941 1.34a5.558 5.558 0 0 0-.19.512 14.044 14.044 0 0 0-.447 1.664c-.19.86-.285 1.572-.295 2.133-.01.56.114 1.007.371 1.34.095.133.219.25.37.352.22.152.495.27.819.352.542.136 1.264.203 2.167.203.343 0 .666-.007.96-.024a9.46 9.46 0 0 0 1.303-.162c.6-.127 1.094-.352 1.493-.679.4-.327.713-.775.951-1.34.21-.497.4-1.115.57-1.853.029-.104.048-.213.077-.323.2-.905.304-1.643.313-2.215h.035zm-3.004 1.079c-.032.289-.1.667-.2 1.136-.102.469-.2.848-.295 1.137a2.123 2.123 0 0 1-.342.677.963.963 0 0 1-.513.328 2.433 2.433 0 0 1-.368.063c-.133.019-.285.019-.447.019-.352 0-.618-.02-.818-.076a.575.575 0 0 1-.409-.323c-.076-.162-.095-.39-.057-.676a10 10 0 0 1 .2-1.131c.105-.466.2-.846.295-1.131.095-.286.209-.514.361-.676a1.07 1.07 0 0 1 .542-.332c.095-.02.2-.038.314-.057.152-.02.323-.029.523-.029.332 0 .59.029.78.095a.58.58 0 0 1 .37.342c.057.162.076.39.038.685l.026-.051zM78.01 6.39a1.663 1.663 0 0 0-.814-.638 3.88 3.88 0 0 0-1.207-.237 28.526 28.526 0 0 0-3.006.016 4.34 4.34 0 0 0-1.434.32 2.82 2.82 0 0 0-1.093.842c-.305.38-.533.913-.675 1.597-.086.438-.114.808-.076 1.132.038.313.19.58.456.789.266.2.675.361 1.207.466.542.104 1.265.152 2.187.152.248 0 .466 0 .656.01.19.009.343.037.457.085.114.048.19.133.228.247.038.114.038.276-.01.485a1.094 1.094 0 0 1-.142.4.524.524 0 0 1-.266.228 1.693 1.693 0 0 1-.476.104c-.2.01-.456.02-.78.02a8.93 8.93 0 0 1-.513-.02 1.155 1.155 0 0 1-.428-.104.624.624 0 0 1-.256-.286c-.058-.133-.058-.323 0-.56h-2.901c-.154.705-.156 1.247-.01 1.625.067.162.152.307.263.438.141.161.312.294.514.39.361.17.805.268 1.322.289.513.022 1.055.033 1.625.033.58 0 1.141-.029 1.674-.095.54-.067 1.027-.2 1.464-.4a3.16 3.16 0 0 0 1.122-.874c.314-.38.538-.89.675-1.522.133-.599.152-1.071.057-1.414a1.248 1.248 0 0 0-.613-.78c-.314-.176-.739-.284-1.27-.337a30.262 30.262 0 0 0-1.902-.104 6.336 6.336 0 0 1-.848-.076c-.194-.038-.333-.094-.418-.16-.086-.066-.124-.142-.124-.227 0-.086.01-.183.031-.295.035-.128.067-.238.102-.323a.4.4 0 0 1 .21-.213c.104-.057.26-.095.469-.114.204-.025.498-.036.878-.036.115 0 .233 0 .362.01.128 0 .242.028.342.076a.6.6 0 0 1 .245.219c.061.098.086.237.076.408h2.71l.064-.38c.112-.523.073-.93-.118-1.217l-.016.03zm-10.455-.058l-.029-.041c-.203-.273-.49-.474-.862-.604-.39-.133-.89-.2-1.493-.2-.537 0-1.038.086-1.502.247-.185.067-.36.162-.527.286-.257.2-.494.456-.713.798h-.133l1.056-4.916h-2.88l-2.667 12.262h2.886l.256-1.487h.134c.019.327.076.592.19.794.114.2.266.362.456.48.19.121.419.203.685.248.228.038.485.057.75.063h.115c1.065 0 1.94-.242 2.624-.726.685-.485 1.15-1.293 1.417-2.429l.418-1.961c.143-.656.21-1.217.19-1.683-.019-.466-.133-.846-.332-1.141l-.04.01zm-2.71 2.577c-.038.276-.098.596-.177.956-.1.458-.2.83-.302 1.12-.101.289-.219.515-.362.678a1.09 1.09 0 0 1-.51.342c-.105.035-.228.06-.352.076a3.314 3.314 0 0 1-.409.024c-.38 0-.675-.038-.865-.114a.647.647 0 0 1-.4-.371c-.066-.171-.085-.4-.047-.694.038-.285.105-.637.19-1.056a7.04 7.04 0 0 1 .323-1.169c.115-.285.257-.513.419-.666a1.21 1.21 0 0 1 .56-.304c.058-.01.134-.028.2-.038.162-.019.352-.028.561-.028.333 0 .59.047.761.152a.758.758 0 0 1 .342.428c.057.19.067.418.029.694l.039-.03z" fill="#FFF"/></g></svg>