<svg width="128" height="107" viewBox="0 0 128 107" xmlns="http://www.w3.org/2000/svg"><g fill="#8E939B" fill-rule="evenodd"><path d="M100.267 102.72c-10.923 0-20.075-7.511-22.699-17.655a26.41 26.41 0 0 1-.555-2.825c0-.064-.021-.128-.021-.192a22.072 22.072 0 0 1-.192-2.868c0-.942.064-1.862.17-2.76.043-.3.086-.621.15-.92.085-.6.213-1.178.341-1.756.086-.363.171-.706.278-1.048.149-.535.341-1.049.512-1.562.128-.343.234-.685.362-1.006.32-.75.662-1.477 1.046-2.183.192-.342.405-.663.597-.984.277-.428.533-.878.832-1.284.213-.3.448-.6.683-.9a26.82 26.82 0 0 1 1.194-1.412c.171-.17.32-.363.491-.556a25.428 25.428 0 0 1 2.09-1.905 27.07 27.07 0 0 1 2.411-1.69c3.627-2.269 7.808-3.574 12.31-3.574.917 0 1.813.064 2.709.171.277.022.533.086.81.129.62.085 1.238.214 1.835.342.299.064.598.15.896.235.576.15 1.131.343 1.686.535.277.107.576.193.853.321.64.257 1.259.557 1.856.856.17.086.363.172.533.257.726.407 1.43.835 2.112 1.327.278.193.534.407.811.6.427.32.853.663 1.259 1.005.277.235.533.47.789.728.405.385.81.813 1.195 1.22.192.213.405.427.597.663a25.26 25.26 0 0 1 1.579 2.076 23.66 23.66 0 0 1 3.946 13.075c0 12.99-10.517 23.54-23.466 23.54zM72.875 83.46H8.277c9.707-7.704 31.574-25.21 42.816-35.096l3.03 2.696c2.09 1.862 4.842 2.89 7.744 2.89 2.901 0 5.674-1.028 7.744-2.89l3.093-2.739 10.73 8.796c-.063.064-.127.107-.191.17a30.902 30.902 0 0 0-1.792 1.542c-.192.17-.406.363-.598.535a34.976 34.976 0 0 0-1.493 1.605 23.252 23.252 0 0 0-1.43 1.819c-.234.32-.469.62-.703.941-.342.492-.64 1.006-.939 1.541a20.949 20.949 0 0 0-1.28 2.504c-.17.364-.32.749-.47 1.113-.191.513-.383 1.005-.554 1.519-.15.45-.277.92-.405 1.37-.128.47-.256.941-.363 1.412-.128.578-.213 1.177-.32 1.776-.064.385-.128.75-.17 1.134a25.158 25.158 0 0 0-.193 3.082c0 .792.043 1.605.128 2.418.043.471.107.92.171 1.391.021.15.021.3.043.471zM47.872 45.496c-11.861 10.4-34.88 28.762-43.605 35.696V6.89l43.605 38.605zM115.968 4.28L71.061 44.063c-.021.021-.064.042-.085.064l-4.181 3.702c-2.603 2.333-7.211 2.333-9.814 0l-4.224-3.745c-.021-.021-.021-.043-.021-.043-.043-.064-.128-.085-.17-.128L7.765 4.28h108.202zm1.813 53.35a26.197 26.197 0 0 0-1.536-1.155c-.192-.15-.384-.3-.597-.428a19.823 19.823 0 0 0-1.6-.963c-.235-.129-.47-.279-.704-.407-.512-.278-1.045-.514-1.579-.77-.298-.129-.576-.279-.853-.407-.49-.214-1.003-.385-1.515-.556a19.524 19.524 0 0 0-1.024-.364c-.49-.15-1.002-.257-1.493-.385-.384-.086-.747-.193-1.13-.279-.555-.107-1.11-.17-1.665-.256-.341-.043-.682-.107-1.024-.15a24.718 24.718 0 0 0-2.794-.15 27.515 27.515 0 0 0-13.078 3.296l-11.242-9.224 43.52-38.541v52.216a24.855 24.855 0 0 0-1.131-.985c-.192-.17-.363-.342-.555-.492zm5.952-55.49c0-.278-.042-.514-.128-.749-.192-.364-.298-.535-.426-.663-.299-.279-.448-.386-.598-.471-.469-.193-.725-.257-.981-.257H2.133a2.21 2.21 0 0 0-.746.15C1.024.342.875.428.747.556c-.299.3-.406.45-.491.621-.213.428-.235.685-.256.92V85.6c0 .257.043.47.107.706.234.428.32.578.448.706.32.279.469.386.618.471.448.193.704.257.96.257H73.9C77.504 98.91 87.957 107 100.267 107 115.563 107 128 94.524 128 79.18c0-5.414-1.579-10.465-4.267-14.766V2.14z"/><path d="M110.827 68.587a2.12 2.12 0 0 0-3.008 0l-7.552 7.576-7.552-7.576a2.12 2.12 0 0 0-3.008 0 2.136 2.136 0 0 0 0 3.017l7.552 7.576-7.552 7.576a2.136 2.136 0 0 0 0 3.017c.426.428.96.62 1.514.62a2.18 2.18 0 0 0 1.515-.62l7.53-7.576 7.553 7.576c.426.428.96.62 1.514.62a2.18 2.18 0 0 0 1.515-.62 2.136 2.136 0 0 0 0-3.017l-7.573-7.576 7.552-7.576a2.136 2.136 0 0 0 0-3.017"/></g></svg>