<svg width="118" height="107" viewBox="0 0 118 107" xmlns="http://www.w3.org/2000/svg"><path d="M30.627 4.293c-3.845 0-7.425.793-10.74 2.246C9.945 11.03 4.244 21.466 4.244 35.204c0 28.666 46.537 60.766 54.492 66.05 7.955-5.284 54.492-37.384 54.492-66.05 0-13.738-6.497-24.57-17.369-29.061-11.667-4.756-25.323-1.19-35.665 9.247l-1.326 1.585-1.458-1.321c-8.485-7.398-18.031-11.36-26.782-11.36zm28.108 101.98l-1.193-.792C55.288 104.028 0 68.757 0 35.204 0 19.75 6.63 7.992 18.031 2.84 30.097-2.576 45.476.594 58.602 11.294 70.004.594 84.722-2.84 97.45 2.444c12.463 5.152 19.888 17.437 19.888 32.892 0 33.554-55.288 68.824-57.541 70.41l-1.061.527z" fill="#8E939B" fill-rule="evenodd"/></svg>