<svg width="90" height="108" viewBox="0 0 90 108" xmlns="http://www.w3.org/2000/svg"><g fill="none" fill-rule="evenodd"><path d="M12.401 108L4.882 19.295h4.483l7.527 84.205h56.306l7.52-84.205h4.367L77.566 108H12.401zM2.506 11.386S0 11.386 0 13.636s2.506 2.25 2.506 2.25h84.988s2.506 0 2.506-2.25-2.506-2.25-2.506-2.25H2.506z" fill="#8E939B"/><path d="M37.465 0c-5.013 0-4.883 4.955-4.883 4.955v8.477h4.883V4.5h15.168v8.932h4.882V4.955S57.515 0 52.503 0H37.465z" fill="#8E939B"/><path stroke="#8E939B" stroke-width="5" stroke-linecap="round" stroke-linejoin="round" d="M32.837 61.282l9.612 8.441L60.612 44.82"/></g></svg>